<svg xmlns="http://www.w3.org/2000/svg" viewBox="0 0 32 32" fill="none">
  <rect width="32" height="32" rx="7" fill="#050505"/>
  <path d="M10.25 6.5C6.8 6.5 4 9.3 4 12.75C4 16.2 6.8 19 10.25 19C12.34 19 14.29 17.98 15.44 16.25L13.03 15.33C12.32 16.19 11.33 16.69 10.25 16.69C8.07 16.69 6.31 14.93 6.31 12.75C6.31 10.57 8.07 8.81 10.25 8.81C11.33 8.81 12.32 9.31 13.03 10.17L15.44 9.25C14.31 7.52 12.35 6.5 10.25 6.5Z" fill="#f6f6f6"/>
  <path d="M21.75 6.5C19.66 6.5 17.71 7.52 16.56 9.25L18.97 10.17C19.68 9.31 20.67 8.81 21.75 8.81C23.93 8.81 25.69 10.57 25.69 12.75C25.69 14.93 23.93 16.69 21.75 16.69C20.67 16.69 19.68 16.19 18.97 15.33L16.56 16.25C17.71 17.98 19.66 19 21.75 19C25.2 19 28 16.2 28 12.75C28 9.3 25.2 6.5 21.75 6.5Z" fill="#e30613"/>
  <path d="M12.9 11.55L18.05 10.36L15.93 12.42L18.1 12.8L12.96 13.93L15.14 11.95L12.9 11.55Z" fill="#ffffff"/>
  <path d="M19.07 14.01L13.92 15.18L16.08 13.12L13.88 12.76L19.03 11.61L16.84 13.58L19.07 14.01Z" fill="#c60410"/>
</svg>
